<?xml version="1.0" standalone="no"?>
<!DOCTYPE svg PUBLIC "-//W3C//DTD SVG 20010904//EN"
 "http://www.w3.org/TR/2001/REC-SVG-20010904/DTD/svg10.dtd">
<svg version="1.0" xmlns="http://www.w3.org/2000/svg"
 width="700.000000pt" height="700.000000pt" viewBox="0 0 700.000000 700.000000"
 preserveAspectRatio="xMidYMid meet">
<metadata>
Created by potrace 1.11, written by Peter Selinger 2001-2013
</metadata>
<g transform="translate(0.000000,700.000000) scale(0.100000,-0.100000)"
fill="#000000" stroke="none">
<path d="M3220 6989 c-687 -56 -1328 -307 -1888 -741 -135 -105 -451 -419
-566 -563 -366 -458 -618 -1021 -715 -1595 -36 -214 -46 -332 -46 -590 0 -145
6 -303 13 -365 81 -686 332 -1296 748 -1820 113 -142 408 -437 549 -549 785
-623 1786 -881 2770 -715 613 103 1185 367 1665 770 145 121 390 373 497 510
406 521 644 1097 729 1764 22 173 26 606 6 765 -21 173 -51 337 -87 486 -272
1109 -1093 2030 -2170 2433 -468 175 -1006 250 -1505 210z m280 -2240 l0 -701
-45 88 c-54 109 -117 189 -193 249 -56 45 -222 135 -248 135 -32 0 -39 210
-10 325 23 90 93 240 150 319 60 85 190 206 267 249 35 20 67 37 72 37 4 0 7
-315 7 -701z m954 -194 c48 -8 100 -21 117 -28 l29 -12 -546 -545 c-301 -300
-543 -536 -540 -525 55 154 53 410 -4 559 -10 26 -5 41 41 134 44 92 63 117
138 191 100 100 195 155 336 196 156 45 289 54 429 30z m-2764 -750 c360 -360
652 -655 649 -655 -3 0 -32 9 -65 20 -156 54 -378 79 -539 61 -117 -13 -247
-46 -275 -70 -24 -20 -66 -165 -76 -260 l-7 -72 -24 23 c-37 34 -139 162 -180
227 -92 142 -176 358 -216 555 -30 152 -32 497 -3 621 29 126 56 205 69 205 7
0 307 -295 667 -655z m3667 -196 c31 -6 85 -20 121 -31 l65 -20 -189 -190
c-104 -104 -442 -442 -751 -751 -310 -309 -563 -567 -563 -574 0 -7 33 -22 76
-34 l75 -22 -270 -271 -271 -271 0 -543 0 -542 -150 0 -150 0 0 342 0 343
-271 271 -271 271 85 26 84 27 24 80 23 81 163 -163 163 -163 0 225 0 225
-159 159 -159 159 -13 66 c-6 36 -24 104 -39 150 l-27 85 26 78 26 78 170
-170 170 -170 5 506 5 506 75 22 c72 20 77 20 125 4 28 -9 60 -17 73 -18 l22
0 0 -312 0 -313 170 170 c93 93 171 167 173 165 2 -3 15 -39 29 -80 l25 -75
36 75 c147 309 404 504 770 585 157 35 360 40 504 14z"/>
<path d="M3807 2482 l-157 -157 0 -225 0 -225 165 165 166 166 -12 74 c-7 46
-9 131 -6 218 3 78 4 142 3 142 -1 0 -72 -71 -159 -158z"/>
</g>
</svg>
